<svg version="1.1" id="Layer_1" xmlns="http://www.w3.org/2000/svg" xmlns:xlink="http://www.w3.org/1999/xlink" x="0px" y="0px"
	 width="100%" viewBox="0 0 992 992" enable-background="new 0 0 992 992" xml:space="preserve">
<path fill="#000000" opacity="1.000000" stroke="none" 
	d="
M448.149902,479.119080 
	C456.790985,473.713989 465.125549,468.508942 473.104950,462.746887 
	C476.471222,460.315979 478.112915,457.504791 478.049377,453.144012 
	C477.813751,436.982239 478.124878,420.811737 477.823273,404.652069 
	C477.720581,399.152100 478.811432,394.606476 482.750824,390.628845 
	C484.782837,388.577179 486.967590,386.340790 487.192291,383.160919 
	C486.145233,382.143494 485.186462,382.690491 484.328583,383.123535 
	C476.230652,387.211212 467.563477,388.381958 458.625580,388.250885 
	C437.969940,387.947876 417.314636,387.503662 396.658142,387.435089 
	C386.577728,387.401642 376.762421,389.161743 367.832458,394.322815 
	C363.997467,396.539215 360.681183,399.330688 358.721588,403.331116 
	C356.199341,408.480103 356.185425,413.593964 359.827637,418.377075 
	C361.461273,420.522461 363.446930,422.264740 365.621399,423.840698 
	C372.022583,428.479919 373.574371,431.948547 370.846100,435.338013 
	C367.540588,439.444641 358.767609,440.070007 354.451416,436.210175 
	C348.282867,430.693817 347.075562,423.370972 347.988281,415.624817 
	C348.979675,407.210602 352.180939,399.858612 357.507965,392.976135 
	C368.724426,378.484650 378.619965,363.026642 388.477539,347.570221 
	C392.166718,341.785675 393.241821,335.178436 394.521423,328.675537 
	C396.023346,321.042664 400.306763,316.671082 407.997101,315.302368 
	C416.872009,313.722809 425.805511,312.780823 434.795624,312.730042 
	C459.285919,312.591736 483.788269,312.149353 508.249359,313.750183 
	C513.292786,314.080292 515.164734,312.479370 514.804871,307.343506 
	C514.409851,301.704803 514.586182,296.013763 514.752869,290.352600 
	C514.853210,286.945374 513.821228,284.247009 511.391113,281.860291 
	C500.804688,271.462891 489.994720,261.316254 478.268585,252.200470 
	C471.984802,247.315582 471.496246,247.335556 464.840790,250.716934 
	C462.153595,248.126343 463.643311,246.211731 465.757324,244.203461 
	C475.058899,235.366974 484.280548,226.446274 493.590149,217.618317 
	C500.277832,211.276596 506.287201,204.437744 510.710266,196.265213 
	C512.258423,193.404648 513.977905,190.422745 518.357849,189.764526 
	C520.122437,194.910782 521.353394,200.377274 525.448425,204.261856 
	C530.644409,209.190857 535.924805,214.030853 541.156067,218.922867 
	C544.806091,222.336227 548.435181,225.771988 552.072754,229.198700 
	C554.952698,231.911682 556.538879,235.324631 557.682312,239.059265 
	C558.900696,243.038620 558.001404,246.155472 554.809875,248.857635 
	C543.074341,258.793823 532.737427,270.097748 522.818176,281.807129 
	C521.375793,283.509827 520.270813,285.168701 520.302490,287.559174 
	C520.399658,294.890533 520.412720,302.225250 520.298340,309.556152 
	C520.252319,312.506287 521.292725,313.751801 524.356567,313.740692 
	C532.572937,313.710907 540.606018,312.558868 548.502441,310.357697 
	C551.325378,309.570801 553.472839,307.800476 555.446228,305.681671 
	C560.562012,300.189026 565.933044,294.956573 571.945312,290.430939 
	C576.715210,286.840424 581.919250,284.405396 588.069092,284.649139 
	C589.716980,284.714447 591.639648,284.494202 592.296204,286.494995 
	C592.914734,288.380035 591.485962,289.587769 590.270142,290.736023 
	C587.570068,293.286041 584.282288,294.946503 581.051453,296.668732 
	C574.289368,300.273438 567.559509,303.913940 561.064270,308.006226 
	C554.790588,311.958923 552.200317,317.529602 552.241882,324.769775 
	C552.334778,340.934540 552.263489,357.100189 552.264526,373.265503 
	C552.270325,461.591370 552.288696,549.917236 552.245605,638.243103 
	C552.243835,641.829590 552.865723,644.956665 554.747131,648.155029 
	C559.534851,656.294189 557.826294,661.739380 549.204590,666.016296 
	C540.404175,670.381958 531.465393,674.480591 522.485291,678.466431 
	C518.834167,680.087036 517.157227,682.282043 517.260986,686.451294 
	C517.505615,696.277283 517.449768,706.117188 517.231812,715.945129 
	C517.147400,719.750366 518.627197,721.115112 522.277588,721.756836 
	C544.880432,725.729919 567.397583,730.203308 590.163147,733.209412 
	C605.608948,735.249023 620.992920,736.690247 635.787231,729.724670 
	C642.038330,726.781494 647.763123,723.166931 652.565979,718.180542 
	C659.770691,710.700439 662.354736,698.793335 658.253174,690.473450 
	C653.415527,680.660767 644.214905,678.396118 634.443298,677.616943 
	C631.002625,677.342529 629.014526,679.513977 627.999390,682.777771 
	C627.551392,684.217957 627.300537,686.469727 624.935547,685.948853 
	C622.713501,685.459473 621.811523,683.642700 621.717163,681.442261 
	C621.565430,677.900757 623.343933,675.270325 626.142395,673.538330 
	C634.814026,668.171326 642.551514,661.554871 650.735718,655.537903 
	C657.911133,650.262573 665.412537,652.047302 669.671082,660.070801 
	C674.271667,668.738708 674.115051,678.074341 672.751099,687.385132 
	C670.457886,703.039978 662.704590,716.293457 651.266174,726.518921 
	C631.420715,744.259766 615.814636,765.350586 600.476379,786.731873 
	C592.361450,798.044006 581.239075,802.651733 567.940186,803.294800 
	C553.352661,804.000122 539.090332,801.406799 524.830872,798.843811 
	C522.594727,798.441895 520.340820,798.138794 517.295288,797.665833 
	C517.831909,805.496277 518.263367,812.570312 518.818726,819.634705 
	C519.222412,824.770325 519.872437,829.887207 520.241333,835.024719 
	C520.377136,836.916687 520.848755,839.572266 518.123535,839.891907 
	C515.169250,840.238403 514.895325,837.645569 514.703247,835.430115 
	C513.697510,823.829712 512.611328,812.234619 511.784637,800.621277 
	C511.579193,797.734863 510.887909,795.955750 507.804230,795.327576 
	C482.212616,790.114380 457.101562,782.786194 431.421753,777.944519 
	C427.732208,777.248962 424.171967,777.432312 420.529816,778.160461 
	C410.308655,780.203918 406.503601,787.520386 410.899750,797.007263 
	C411.664856,798.658386 412.579529,800.301697 413.727173,801.700806 
	C415.814697,804.245789 416.716461,806.832336 415.154083,809.966370 
	C413.986786,812.307861 412.005249,812.660217 409.688812,812.481934 
	C406.179871,812.211914 403.762726,810.502930 402.464417,807.226013 
	C400.484528,802.228699 400.644958,797.102600 401.795288,791.999939 
	C403.254974,785.524963 405.980347,779.626831 411.267273,775.379089 
	C430.597626,759.848572 446.921997,741.371582 463.151062,722.791016 
	C464.242889,721.540955 465.276947,719.656067 466.641357,719.327820 
	C473.136078,717.765625 473.898438,712.865662 474.556854,707.453186 
	C475.335846,701.049377 478.315735,695.456787 481.846832,690.112366 
	C487.067261,682.211121 487.030426,679.211609 481.669434,671.725952 
	C478.467865,667.255493 477.974579,662.177246 477.971649,656.975952 
	C477.953644,624.812012 478.033081,592.647888 477.956024,560.484131 
	C477.928345,548.941528 476.924683,537.538269 471.618713,526.942200 
	C463.685150,511.098877 440.862640,498.824615 425.382477,503.235291 
	C417.941833,505.355316 415.408997,507.830475 415.123108,515.578491 
	C415.013092,518.560181 414.459747,521.243469 411.458649,522.669861 
	C409.645630,523.531494 407.855560,523.438232 406.348267,522.034851 
	C403.831909,519.691956 403.681610,516.827393 404.733337,513.757202 
	C406.421509,508.829010 409.892609,505.256989 413.773346,502.037842 
	C424.335724,493.276306 436.440643,486.819031 448.149902,479.119080 
M511.655762,715.006592 
	C511.655762,705.114258 511.655762,695.221924 511.655762,684.381897 
	C501.219818,689.563538 492.101166,694.802612 484.888184,702.844666 
	C483.797821,704.060303 482.904297,705.534119 482.233002,707.029236 
	C479.874603,712.281738 481.838257,715.772461 487.476990,716.530884 
	C494.218567,717.437622 500.983459,718.193787 507.698792,719.263123 
	C510.687042,719.739014 511.727081,718.635010 511.655762,715.006592 
z"/>
<path fill="#000000" opacity="1.000000" stroke="none" 
	d="
M26.386517,864.715942 
	C17.508371,863.633789 13.291553,855.525452 17.165340,847.336487 
	C17.956726,845.663513 18.467798,844.541321 17.363672,842.851196 
	C15.893530,840.600830 15.688476,838.162659 17.481468,835.881226 
	C18.405853,834.705078 18.385101,833.774475 17.628181,832.320190 
	C14.701801,826.697571 15.417220,825.205505 21.204000,823.973328 
	C14.247980,816.088684 16.004917,806.411255 16.537167,797.408691 
	C16.766380,793.531677 17.374317,789.884460 17.303598,785.831482 
	C17.202047,780.011230 15.241693,774.368347 16.030945,768.473999 
	C16.615831,764.105896 18.639687,761.633545 22.986464,761.935974 
	C31.264162,762.511902 30.791292,762.538879 31.302027,771.479919 
	C31.666824,777.866211 31.822313,784.112854 30.557226,790.378357 
	C30.271784,791.792053 31.164131,792.921753 31.591677,794.166138 
	C32.019882,795.412292 32.925999,796.867676 32.612053,797.933838 
	C30.773697,804.177307 33.349899,810.709595 31.908298,816.577087 
	C30.512074,822.259949 32.898613,828.038879 29.758455,833.787842 
	C28.234554,836.577698 30.618021,841.612976 31.548609,845.557129 
	C31.792713,846.591675 32.965290,847.684753 32.533554,848.746765 
	C30.738710,853.161987 29.341225,857.585327 29.687960,862.467102 
	C29.811964,864.213013 27.906036,864.122498 26.386517,864.715942 
M24.257528,771.705688 
	C26.622427,768.656189 24.233459,768.297058 21.444418,767.224609 
	C22.078108,769.437134 18.105186,772.664124 24.257528,771.705688 
z"/>
<path fill="#000000" opacity="1.000000" stroke="none" 
	d="
M18.844395,952.840210 
	C13.367446,950.493530 13.195212,949.488892 17.219860,945.742188 
	C19.612505,943.514893 21.390001,941.113708 19.673792,937.467407 
	C18.232414,934.404968 19.709618,931.887573 22.238853,930.156860 
	C25.170702,928.150696 28.074150,929.516357 30.638470,931.066650 
	C33.333870,932.696167 32.835094,935.162048 31.765083,937.675781 
	C31.327456,938.703918 30.793598,940.262817 31.246298,941.005493 
	C34.180714,945.819153 32.453323,951.370300 32.042999,955.883484 
	C31.356266,963.437012 35.449883,971.724182 29.633917,978.729675 
	C28.962236,979.538757 29.564774,980.637695 30.074591,981.528320 
	C30.851028,982.884644 31.473913,984.360474 30.109404,985.620728 
	C28.790077,986.839172 27.298307,985.981140 25.889721,985.541199 
	C23.829950,984.897888 21.745054,984.328674 19.707645,983.621826 
	C17.852129,982.978088 15.750483,982.535767 15.337389,980.094788 
	C14.923202,977.647278 16.757061,976.585144 18.308804,975.339294 
	C19.066339,974.731018 19.756630,974.039001 20.475302,973.386780 
	C19.854719,970.838257 18.675798,969.051025 16.353115,967.954285 
	C13.614875,966.661194 13.636878,964.320007 15.724007,962.831360 
	C19.344627,960.248840 19.207893,956.769409 18.844395,952.840210 
z"/>
<path fill="#000000" opacity="1.000000" stroke="none" 
	d="
M27.460876,925.753906 
	C25.676937,924.261780 24.210913,924.740417 22.529356,925.295410 
	C18.025179,926.782227 15.601362,925.099487 15.021426,920.438538 
	C14.700855,917.862183 15.100286,915.146729 16.338264,913.198547 
	C18.908236,909.154114 19.280005,904.611877 20.153980,900.222900 
	C20.901197,896.470520 20.122730,892.370422 16.904392,890.078430 
	C13.597737,887.723572 13.967014,885.980774 16.642620,883.992310 
	C18.158018,882.866150 19.164583,881.427856 20.448647,879.638062 
	C23.624161,882.785278 26.672316,880.018799 29.515478,879.283997 
	C30.864922,880.090027 30.858932,881.132690 30.915163,882.112366 
	C31.519102,892.633911 32.198414,903.156616 31.257338,913.693054 
	C31.104376,915.405640 31.634161,916.950562 32.047237,918.560242 
	C33.015377,922.332947 32.106098,925.122498 27.460876,925.753906 
z"/>
<path fill="#000000" opacity="1.000000" stroke="none" 
	d="
M23.748800,869.395752 
	C26.827393,869.660461 29.481434,869.825745 32.131489,870.040283 
	C33.653664,870.163452 34.655682,870.915344 34.588913,872.565918 
	C34.531563,873.983582 33.526871,874.661011 32.282349,874.734802 
	C26.805836,875.059265 21.321299,875.340393 15.879721,874.303772 
	C15.039806,874.143738 14.272196,873.766602 14.102420,872.809814 
	C13.895366,871.642944 14.552003,870.876160 15.531199,870.480774 
	C18.025202,869.473816 20.603855,868.887817 23.748800,869.395752 
z"/>
</svg>